<?xml version="1.0" encoding="utf-8"?>
<?xml-stylesheet href= "../css/core.css" type= "text/css"?>
<svg width="663" height="116" viewBox="0 0 663 116" fill="var(--c-bg)" xmlns="http://www.w3.org/2000/svg">
    <rect width="663" height="116" fill="var(--c-bg)" />
    <rect width="17" height="88" transform="matrix(-1 0 0 1 643 10)" fill="white" style="mix-blend-mode:difference" />
    <rect width="29" height="66.2258" transform="matrix(0 -1 -0.619094 -0.785317 626 98)" fill="white"
        style="mix-blend-mode:difference" />
    <rect width="17" height="89" transform="matrix(-1 0 0 1 585 17)" fill="white" style="mix-blend-mode:difference" />
    <path
        d="M538.586 21.1895C531.013 15.5144 521.874 12.313 512.416 12.0218C502.957 11.7305 493.639 14.3636 485.731 19.5621C477.823 24.7605 471.712 32.2713 468.229 41.0703C464.746 49.8694 464.062 59.5285 466.269 68.7306C468.477 77.9328 473.469 86.2302 480.564 92.4916C487.66 98.7529 496.514 102.673 505.92 103.719C515.325 104.764 524.824 102.883 533.121 98.3319C541.418 93.7811 548.11 86.7821 552.284 78.2891L537.697 71.1201C534.997 76.6122 530.67 81.1382 525.305 84.0811C519.939 87.0239 513.797 88.2403 507.715 87.5644C501.633 86.8885 495.907 84.3533 491.318 80.3043C486.73 76.2554 483.502 70.8898 482.074 64.9391C480.647 58.9884 481.089 52.7422 483.341 47.0522C485.594 41.3623 489.546 36.5053 494.659 33.1437C499.773 29.7821 505.799 28.0794 511.915 28.2677C518.032 28.4561 523.942 30.5263 528.839 34.1961L538.586 21.1895Z"
        fill="white" style="mix-blend-mode:difference" />
    <rect x="500" y="49" width="49" height="17" fill="white" style="mix-blend-mode:difference" />
    <path d="M392 12H409V104H392V12Z" fill="white" style="mix-blend-mode:difference" />
    <path d="M448 12H465L426 51H409L448 12Z" fill="white" style="mix-blend-mode:difference" />
    <path d="M409 51H426L459.999 104H442.999L409 51Z" fill="white" style="mix-blend-mode:difference" />
    <g clip-path="url(#clip0_1_2)" style="mix-blend-mode: difference" id="rotter">
        <path
            d="M313.684 12.058C306.513 15.2104 300.222 20.0703 295.36 26.2134C290.499 32.3565 287.215 39.5961 285.795 47.3003C284.375 55.0045 284.862 62.9391 287.215 70.4116C289.567 77.8841 293.712 84.6673 299.289 90.1693C304.865 95.6712 311.704 99.7246 319.207 101.976C326.711 104.227 334.651 104.607 342.336 103.083C350.02 101.56 357.215 98.1784 363.292 93.2346C369.369 88.2908 374.143 81.9347 377.199 74.7212L361.581 68.1063C359.606 72.771 356.518 76.8812 352.588 80.0781C348.659 83.2751 344.006 85.4617 339.037 86.4469C334.068 87.4322 328.933 87.1863 324.081 85.7306C319.229 84.275 314.806 81.6538 311.2 78.0959C307.594 74.538 304.913 70.1516 303.392 65.3194C301.871 60.4872 301.556 55.3562 302.474 50.3742C303.393 45.3922 305.516 40.7107 308.66 36.7382C311.803 32.7657 315.872 29.623 320.509 27.5844L313.684 12.058Z"
            style="mix-blend-mode:difference;fill: #2196f3;" />
    </g>
    <path d="M227.42 12H244.42L282.98 104H265.98L227.42 12Z" fill="white" style="mix-blend-mode:difference" />
    <path d="M227.37 12H244.37L205.81 104H188.81L227.37 12Z" fill="white" style="mix-blend-mode:difference" />
    <path d="M116 48H133V104H116V48Z" fill="white" style="mix-blend-mode:difference" />
    <path
        d="M188 48C188 67.8823 171.882 84 152 84C132.118 84 116 67.8823 116 48C116 28.1177 132.118 12 152 12C171.882 12 188 28.1177 188 48ZM133.001 48C133.001 58.4927 141.507 66.9988 152 66.9988C162.493 66.9988 170.999 58.4927 170.999 48C170.999 37.5073 162.493 29.0012 152 29.0012C141.507 29.0012 133.001 37.5073 133.001 48Z"
        fill="white" style="mix-blend-mode:difference" />
    <path
        d="M104 58C104 83.4051 83.4051 104 58 104C32.5949 104 12 83.4051 12 58C12 32.5949 32.5949 12 58 12C83.4051 12 104 32.5949 104 58ZM28.2536 58C28.2536 74.4285 41.5715 87.7464 58 87.7464C74.4285 87.7464 87.7464 74.4285 87.7464 58C87.7464 41.5715 74.4285 28.2536 58 28.2536C41.5715 28.2536 28.2536 41.5715 28.2536 58Z"
        fill="white" style="mix-blend-mode:difference" />
    <defs>
        <clipPath id="clip0_1_2">
            <rect width="96" height="96" fill="white" transform="translate(285 8)" />
        </clipPath>
    </defs>

    <style>
        #rotter {}
    </style>
</svg>